<svg width="112" height="38" viewBox="0 0 112 38" fill="none" xmlns="http://www.w3.org/2000/svg">
<rect x="0.5" y="0.5" width="111" height="37" rx="18.5" stroke="white"/>
<path d="M37.932 26C37.692 26 37.512 25.92 37.512 25.76V25.72C37.512 25.34 38.252 25.3 38.252 24.6V13.2C38.252 12.48 37.512 12.46 37.512 12.08V12.04C37.512 11.88 37.692 11.8 37.932 11.8H42.312C46.732 11.8 50.392 14.6 50.392 18.78C50.392 23.3 47.152 26 43.032 26H37.932ZM40.972 25.18H42.912C45.972 25.18 48.532 23.1 48.532 19.42C48.532 15.26 45.372 12.62 41.992 12.62H40.592C40.272 12.62 40.032 12.82 40.032 13.26V24.08C40.032 24.78 40.392 25.18 40.972 25.18ZM52.6977 26C52.4577 26 52.2777 25.92 52.2777 25.76V25.72C52.2777 25.34 53.0177 25.32 53.0177 24.6V13.2C53.0177 12.46 52.2777 12.46 52.2777 12.08V12.04C52.2777 11.88 52.4177 11.8 52.6377 11.8H61.0577C61.3777 11.8 61.4977 11.96 61.5577 12.26L62.0377 14.24C62.0977 14.5 61.9777 14.64 61.7777 14.64H61.6977C61.0577 14.64 60.5977 12.62 59.5377 12.62H55.4177C55.0577 12.62 54.8377 12.82 54.8377 13.26V18.94H58.5377C59.2177 18.94 59.2777 17.76 59.6777 17.76H59.7977C59.9577 17.76 60.0577 17.88 60.0577 18.1V20.56C60.0577 20.76 59.9577 20.9 59.7977 20.9H59.6777C59.2777 20.9 59.2177 19.78 58.5377 19.78H54.8377V24.6C54.8377 25.32 55.6177 25.34 55.6177 25.72V25.76C55.6177 25.92 55.4577 26 55.2177 26H52.6977ZM69.5133 26.2C65.9933 26.2 62.7733 22.72 62.7733 18.76C62.7733 14.56 65.5733 11.62 69.4133 11.62C72.5733 11.62 74.8733 13.88 74.8733 15.32C74.8733 15.84 74.5533 16.18 73.9933 16.18C72.4933 16.18 72.6133 12.44 68.9533 12.44C66.6333 12.44 64.5733 14.6 64.5733 17.76C64.5733 21.8 67.1933 24.6 70.0133 24.6C72.4133 24.6 73.7933 22.76 74.4133 21.28C74.6533 20.88 75.2733 20.96 75.1533 21.54C74.7133 23.9 72.8333 26.2 69.5133 26.2Z" fill="white"/>
</svg>
