<svg width="165" height="56" viewBox="0 0 165 56" fill="none" xmlns="http://www.w3.org/2000/svg">
<rect x="0.5" y="0.5" width="164" height="55" rx="27.5" stroke="#51514B"/>
<path d="M55.5913 40C55.2073 40 54.9193 39.872 54.9193 39.616V39.552C54.9193 38.944 56.1033 38.88 56.1033 37.76V19.52C56.1033 18.368 54.9193 18.336 54.9193 17.728V17.664C54.9193 17.408 55.2073 17.28 55.5913 17.28H62.5993C69.6713 17.28 75.5273 21.76 75.5273 28.448C75.5273 35.68 70.3433 40 63.7513 40H55.5913ZM60.4553 38.688H63.5593C68.4553 38.688 72.5513 35.36 72.5513 29.472C72.5513 22.816 67.4953 18.592 62.0873 18.592H59.8473C59.3353 18.592 58.9513 18.912 58.9513 19.616V36.928C58.9513 38.048 59.5273 38.688 60.4553 38.688ZM79.2163 40C78.8323 40 78.5443 39.872 78.5443 39.616V39.552C78.5443 38.944 79.7283 38.912 79.7283 37.76V19.52C79.7283 18.336 78.5443 18.336 78.5443 17.728V17.664C78.5443 17.408 78.7682 17.28 79.1203 17.28H92.5923C93.1042 17.28 93.2963 17.536 93.3923 18.016L94.1603 21.184C94.2563 21.6 94.0643 21.824 93.7443 21.824H93.6163C92.5923 21.824 91.8563 18.592 90.1603 18.592H83.5683C82.9923 18.592 82.6403 18.912 82.6403 19.616V28.704H88.5603C89.6483 28.704 89.7443 26.816 90.3843 26.816H90.5763C90.8323 26.816 90.9923 27.008 90.9923 27.36V31.296C90.9923 31.616 90.8323 31.84 90.5763 31.84H90.3843C89.7443 31.84 89.6483 30.048 88.5603 30.048H82.6403V37.76C82.6403 38.912 83.8883 38.944 83.8883 39.552V39.616C83.8883 39.872 83.6323 40 83.2483 40H79.2163ZM106.121 40.32C100.489 40.32 95.3372 34.752 95.3372 28.416C95.3372 21.696 99.8173 16.992 105.961 16.992C111.017 16.992 114.697 20.608 114.697 22.912C114.697 23.744 114.185 24.288 113.289 24.288C110.889 24.288 111.081 18.304 105.225 18.304C101.513 18.304 98.2173 21.76 98.2173 26.816C98.2173 33.28 102.409 37.76 106.921 37.76C110.761 37.76 112.969 34.816 113.961 32.448C114.345 31.808 115.337 31.936 115.145 32.864C114.441 36.64 111.433 40.32 106.121 40.32Z" fill="#363131"/>
</svg>
